<svg width="1140" height="480" viewBox="0 0 1140 480" fill="none" xmlns="http://www.w3.org/2000/svg">
    <path d="M782.464 2.632V3.72H791.696V2.632H782.464ZM780.8 8.424V9.528H793.904V8.424H780.8ZM790.912 2.632V3.768C790.912 5.064 790.912 6.6 790.448 8.744L791.744 8.888C792.208 6.68 792.208 5.096 792.208 3.768V2.632H790.912ZM782.512 14.824V15.928H792.64V14.824H782.512ZM782.512 11.128V14.984H783.84V11.128H782.512ZM795.503 10.184V11.272H808.623V10.184H795.503ZM801.359 10.84V16.248H802.671V10.84H801.359ZM797.167 2.584V8.232H806.927V2.584H797.167ZM805.631 3.656V7.16H798.479V3.656H805.631ZM814.046 3.032V5.624C814.046 8.36 812.302 11.128 810.158 12.152L810.974 13.24C813.342 12.04 815.134 8.952 815.134 5.624V3.032H814.046ZM814.27 3.032V5.624C814.27 8.84 816.078 11.816 818.43 12.968L819.23 11.912C817.086 10.92 815.358 8.264 815.358 5.624V3.032H814.27ZM820.734 1.768V16.264H822.062V1.768H820.734ZM834.844 1.784V12.36H836.172V1.784H834.844ZM835.756 6.168V7.272H838.316V6.168H835.756ZM830.892 2.904V3.48C830.892 6.264 828.604 8.504 824.956 9.624L825.532 10.712C829.676 9.384 832.3 6.648 832.3 2.904H830.892ZM825.548 2.904V3.992H831.564V2.904H825.548ZM827.148 14.84V15.928H836.812V14.84H827.148ZM827.148 11.288V15.272H828.476V11.288H827.148Z" fill="black"/>
    <path d="M890.8 13.32V14.424H903.904V13.32H890.8ZM896.672 10.056V13.912H898V10.056H896.672ZM896.672 4.808V5.128C896.672 7.368 894.336 9.048 891.504 9.496L892.016 10.552C895.152 10.008 897.84 8.088 897.84 5.128V4.808H896.672ZM896.848 4.808V5.128C896.848 8.088 899.52 10.008 902.656 10.552L903.168 9.496C900.336 9.048 898 7.368 898 5.128V4.808H896.848ZM892 4.056V5.16H902.656V4.056H892ZM896.672 2.088V4.456H898V2.088H896.672ZM906.159 3.368V4.44H912.703V3.368H906.159ZM908.415 7.496V12.392H909.727V7.496H908.415ZM912.159 3.368V4.136C912.159 5.304 912.159 7.16 911.727 9.768L913.039 9.896C913.455 7.208 913.455 5.32 913.455 4.136V3.368H912.159ZM915.279 1.784V16.248H916.591V1.784H915.279ZM916.239 7.832V8.952H918.911V7.832H916.239ZM905.519 13.096C908.079 13.08 911.471 13.016 914.463 12.536L914.399 11.56C911.471 11.928 907.983 11.976 905.359 11.976L905.519 13.096ZM926.402 2.632V3.72H935.634V2.632H926.402ZM924.738 8.424V9.528H937.842V8.424H924.738ZM934.85 2.632V3.768C934.85 5.064 934.85 6.6 934.386 8.744L935.682 8.888C936.146 6.68 936.146 5.096 936.146 3.768V2.632H934.85ZM926.45 14.824V15.928H936.578V14.824H926.45ZM926.45 11.128V14.984H927.778V11.128H926.45ZM939.44 10.184V11.272H952.56V10.184H939.44ZM945.296 10.84V16.248H946.608V10.84H945.296ZM941.104 2.584V8.232H950.864V2.584H941.104ZM949.568 3.656V7.16H942.416V3.656H949.568ZM957.983 3.032V5.624C957.983 8.36 956.239 11.128 954.095 12.152L954.911 13.24C957.279 12.04 959.071 8.952 959.071 5.624V3.032H957.983ZM958.207 3.032V5.624C958.207 8.84 960.015 11.816 962.367 12.968L963.167 11.912C961.023 10.92 959.295 8.264 959.295 5.624V3.032H958.207ZM964.671 1.768V16.264H965.999V1.768H964.671ZM978.782 1.784V12.36H980.11V1.784H978.782ZM979.694 6.168V7.272H982.254V6.168H979.694ZM974.83 2.904V3.48C974.83 6.264 972.542 8.504 968.894 9.624L969.47 10.712C973.614 9.384 976.238 6.648 976.238 2.904H974.83ZM969.486 2.904V3.992H975.502V2.904H969.486ZM971.086 14.84V15.928H980.75V14.84H971.086ZM971.086 11.288V15.272H972.414V11.288H971.086Z" fill="black"/>
    <path d="M1040.56 5.272V6.376H1043.38V5.272H1040.56ZM1040.56 9.672V10.776H1043.38V9.672H1040.56ZM1045.81 1.784V16.248H1047.09V1.784H1045.81ZM1042.98 2.088V15.528H1044.22V2.088H1042.98ZM1038.05 2.984C1036.18 2.984 1034.98 4.92 1034.98 8.024C1034.98 11.128 1036.18 13.064 1038.05 13.064C1039.92 13.064 1041.14 11.128 1041.14 8.024C1041.14 4.92 1039.92 2.984 1038.05 2.984ZM1038.05 4.216C1039.2 4.216 1039.92 5.688 1039.92 8.024C1039.92 10.36 1039.2 11.832 1038.05 11.832C1036.91 11.832 1036.18 10.36 1036.18 8.024C1036.18 5.688 1036.91 4.216 1038.05 4.216ZM1057.23 5.528V6.632H1060.49V5.528H1057.23ZM1060.08 1.784V10.408H1061.41V1.784H1060.08ZM1056.65 10.84C1053.66 10.84 1051.82 11.848 1051.82 13.544C1051.82 15.256 1053.66 16.232 1056.65 16.232C1059.63 16.232 1061.47 15.256 1061.47 13.544C1061.47 11.848 1059.63 10.84 1056.65 10.84ZM1056.65 11.88C1058.83 11.88 1060.16 12.488 1060.16 13.544C1060.16 14.584 1058.83 15.192 1056.65 15.192C1054.48 15.192 1053.15 14.584 1053.15 13.544C1053.15 12.488 1054.48 11.88 1056.65 11.88ZM1053.2 3.24V4.408C1053.2 6.488 1051.71 8.424 1049.57 9.208L1050.25 10.264C1052.65 9.368 1054.29 7.08 1054.29 4.408V3.24H1053.2ZM1053.45 3.24V4.408C1053.45 6.84 1055.01 9.016 1057.36 9.864L1058.03 8.808C1055.93 8.072 1054.53 6.28 1054.53 4.408V3.24H1053.45ZM1049.97 2.84V3.928H1057.69V2.84H1049.97ZM1070.4 2.632V3.72H1079.63V2.632H1070.4ZM1068.74 8.424V9.528H1081.84V8.424H1068.74ZM1078.85 2.632V3.768C1078.85 5.064 1078.85 6.6 1078.39 8.744L1079.68 8.888C1080.15 6.68 1080.15 5.096 1080.15 3.768V2.632H1078.85ZM1070.45 14.824V15.928H1080.58V14.824H1070.45ZM1070.45 11.128V14.984H1071.78V11.128H1070.45ZM1083.44 10.184V11.272H1096.56V10.184H1083.44ZM1089.3 10.84V16.248H1090.61V10.84H1089.3ZM1085.1 2.584V8.232H1094.86V2.584H1085.1ZM1093.57 3.656V7.16H1086.42V3.656H1093.57ZM1101.98 3.032V5.624C1101.98 8.36 1100.24 11.128 1098.1 12.152L1098.91 13.24C1101.28 12.04 1103.07 8.952 1103.07 5.624V3.032H1101.98ZM1102.21 3.032V5.624C1102.21 8.84 1104.02 11.816 1106.37 12.968L1107.17 11.912C1105.02 10.92 1103.3 8.264 1103.3 5.624V3.032H1102.21ZM1108.67 1.768V16.264H1110V1.768H1108.67ZM1122.78 1.784V12.36H1124.11V1.784H1122.78ZM1123.69 6.168V7.272H1126.25V6.168H1123.69ZM1118.83 2.904V3.48C1118.83 6.264 1116.54 8.504 1112.89 9.624L1113.47 10.712C1117.61 9.384 1120.24 6.648 1120.24 2.904H1118.83ZM1113.49 2.904V3.992H1119.5V2.904H1113.49ZM1115.09 14.84V15.928H1124.75V14.84H1115.09ZM1115.09 11.288V15.272H1116.41V11.288H1115.09Z" fill="black"/>
    <line x1="36" y1="479.5" x2="1140" y2="479.5" stroke="#B8B8B8"/>
    <line x1="36" y1="326.5" x2="1140" y2="326.5" stroke="#B8B8B8"/>
    <line x1="36" y1="178.5" x2="1140" y2="178.5" stroke="#B8B8B8"/>
    <line x1="36" y1="405.5" x2="1140" y2="405.5" stroke="#B8B8B8"/>
    <line x1="36" y1="252.5" x2="1140" y2="252.5" stroke="#B8B8B8"/>
    <line x1="36" y1="104.5" x2="1140" y2="104.5" stroke="#B8B8B8"/>
    <line x1="36" y1="33.5" x2="1140" y2="33.5" stroke="#B8B8B8"/>
    <line x1="36" y1="442.5" x2="1140" y2="442.5" stroke="#B8B8B8"/>
    <line x1="36" y1="289.5" x2="1140" y2="289.5" stroke="#B8B8B8"/>
    <line x1="36" y1="141.5" x2="1140" y2="141.5" stroke="#B8B8B8"/>
    <line x1="36" y1="368.5" x2="1140" y2="368.5" stroke="#B8B8B8"/>
    <line x1="36" y1="215.5" x2="1140" y2="215.5" stroke="#B8B8B8"/>
    <line x1="36" y1="67.5" x2="1140" y2="67.5" stroke="#B8B8B8"/>
    <path d="M36.5 8L36.5 480" stroke="#B8B8B8"/>
    <rect x="751" width="18" height="18" fill="#C1D4EF"/>
    <rect x="861" width="18" height="18" fill="#F5D5D5"/>
    <rect x="1005" width="18" height="18" fill="#CFD2D7"/>
    <path d="M16.04 409.76H13.96V413H12.26V409.76H5.42V408.26L12.14 398.64H13.96V408.18H16.04V409.76ZM12.26 403.68C12.26 403.333 12.26 403.02 12.26 402.74C12.2733 402.447 12.2867 402.173 12.3 401.92C12.3133 401.667 12.32 401.427 12.32 401.2C12.3333 400.96 12.3467 400.733 12.36 400.52H12.28C12.1733 400.773 12.04 401.047 11.88 401.34C11.72 401.633 11.5667 401.88 11.42 402.08L7.14 408.18H12.26V403.68Z" fill="#B8B8B8"/>
    <path d="M10.7 319.52C11.54 319.52 12.28 319.653 12.92 319.92C13.56 320.173 14.06 320.553 14.42 321.06C14.7933 321.567 14.98 322.193 14.98 322.94C14.98 323.513 14.8533 324.013 14.6 324.44C14.36 324.867 14.0333 325.247 13.62 325.58C13.2067 325.9 12.7533 326.187 12.26 326.44C12.8467 326.72 13.38 327.04 13.86 327.4C14.34 327.747 14.72 328.153 15 328.62C15.2933 329.087 15.44 329.647 15.44 330.3C15.44 331.1 15.2467 331.793 14.86 332.38C14.4733 332.953 13.9267 333.4 13.22 333.72C12.5267 334.04 11.7067 334.2 10.76 334.2C9.73333 334.2 8.86 334.047 8.14 333.74C7.43333 333.433 6.89333 333 6.52 332.44C6.16 331.867 5.98 331.173 5.98 330.36C5.98 329.707 6.11333 329.14 6.38 328.66C6.66 328.18 7.02667 327.767 7.48 327.42C7.93333 327.073 8.42 326.78 8.94 326.54C8.47333 326.273 8.04667 325.973 7.66 325.64C7.28667 325.293 6.98667 324.9 6.76 324.46C6.54667 324.02 6.44 323.507 6.44 322.92C6.44 322.187 6.62667 321.573 7 321.08C7.37333 320.573 7.88 320.187 8.52 319.92C9.16 319.653 9.88667 319.52 10.7 319.52ZM7.7 330.38C7.7 331.073 7.94667 331.653 8.44 332.12C8.93333 332.573 9.69333 332.8 10.72 332.8C11.3733 332.8 11.92 332.693 12.36 332.48C12.8 332.267 13.1333 331.973 13.36 331.6C13.6 331.227 13.72 330.8 13.72 330.32C13.72 329.853 13.5933 329.447 13.34 329.1C13.1 328.74 12.7533 328.42 12.3 328.14C11.86 327.86 11.3333 327.607 10.72 327.38L10.4 327.26C9.81333 327.513 9.32 327.787 8.92 328.08C8.52 328.373 8.21333 328.707 8 329.08C7.8 329.453 7.7 329.887 7.7 330.38ZM10.68 320.94C9.94667 320.94 9.34 321.12 8.86 321.48C8.39333 321.827 8.16 322.333 8.16 323C8.16 323.493 8.27333 323.907 8.5 324.24C8.74 324.573 9.06 324.86 9.46 325.1C9.86 325.327 10.3 325.547 10.78 325.76C11.2467 325.56 11.66 325.34 12.02 325.1C12.3933 324.86 12.6867 324.573 12.9 324.24C13.1267 323.893 13.24 323.48 13.24 323C13.24 322.333 13.0067 321.827 12.54 321.48C12.0733 321.12 11.4533 320.94 10.68 320.94Z" fill="#B8B8B8"/>
    <path d="M7.1 260H5.38V250.02C5.38 249.633 5.38 249.307 5.38 249.04C5.39333 248.773 5.40667 248.527 5.42 248.3C5.43333 248.06 5.44667 247.813 5.46 247.56C5.24667 247.773 5.05333 247.953 4.88 248.1C4.70667 248.247 4.48667 248.433 4.22 248.66L2.7 249.9L1.78 248.72L5.64 245.72H7.1V260ZM21.8453 260H12.4053V258.54L16.1453 254.76C16.8653 254.04 17.472 253.4 17.9653 252.84C18.4586 252.28 18.832 251.733 19.0853 251.2C19.3386 250.653 19.4653 250.06 19.4653 249.42C19.4653 248.633 19.232 248.04 18.7653 247.64C18.2986 247.227 17.692 247.02 16.9453 247.02C16.252 247.02 15.6386 247.14 15.1053 247.38C14.5853 247.62 14.052 247.953 13.5053 248.38L12.5653 247.2C12.9386 246.88 13.3453 246.593 13.7853 246.34C14.2386 246.087 14.7253 245.887 15.2453 245.74C15.7786 245.593 16.3453 245.52 16.9453 245.52C17.8386 245.52 18.6053 245.673 19.2453 245.98C19.8853 246.287 20.3786 246.727 20.7253 247.3C21.0853 247.86 21.2653 248.533 21.2653 249.32C21.2653 249.88 21.1786 250.413 21.0053 250.92C20.832 251.413 20.5853 251.9 20.2653 252.38C19.9453 252.86 19.5586 253.347 19.1053 253.84C18.652 254.333 18.152 254.847 17.6053 255.38L14.6253 258.32V258.4H21.8453V260Z" fill="#B8B8B8"/>
    <path d="M7.1 186H5.38V176.02C5.38 175.633 5.38 175.307 5.38 175.04C5.39333 174.773 5.40667 174.527 5.42 174.3C5.43333 174.06 5.44667 173.813 5.46 173.56C5.24667 173.773 5.05333 173.953 4.88 174.1C4.70667 174.247 4.48667 174.433 4.22 174.66L2.7 175.9L1.78 174.72L5.64 171.72H7.1V186ZM12.5453 179.9C12.5453 179.073 12.5986 178.26 12.7053 177.46C12.8253 176.66 13.0253 175.907 13.3053 175.2C13.5853 174.48 13.972 173.847 14.4653 173.3C14.9586 172.74 15.5786 172.307 16.3253 172C17.0853 171.68 18.0053 171.52 19.0853 171.52C19.3653 171.52 19.672 171.533 20.0053 171.56C20.352 171.587 20.632 171.633 20.8453 171.7V173.2C20.6053 173.12 20.332 173.06 20.0253 173.02C19.732 172.98 19.432 172.96 19.1253 172.96C18.2053 172.96 17.4386 173.113 16.8253 173.42C16.212 173.727 15.7253 174.147 15.3653 174.68C15.0186 175.213 14.7653 175.827 14.6053 176.52C14.4453 177.213 14.3453 177.953 14.3053 178.74H14.4253C14.6253 178.42 14.8786 178.133 15.1853 177.88C15.492 177.627 15.8586 177.427 16.2853 177.28C16.7253 177.133 17.232 177.06 17.8053 177.06C18.632 177.06 19.352 177.233 19.9653 177.58C20.592 177.913 21.0786 178.407 21.4253 179.06C21.772 179.7 21.9453 180.48 21.9453 181.4C21.9453 182.387 21.7586 183.24 21.3853 183.96C21.012 184.68 20.4853 185.233 19.8053 185.62C19.1386 186.007 18.3386 186.2 17.4053 186.2C16.7253 186.2 16.092 186.073 15.5053 185.82C14.9186 185.567 14.3986 185.18 13.9453 184.66C13.5053 184.14 13.1586 183.487 12.9053 182.7C12.6653 181.9 12.5453 180.967 12.5453 179.9ZM17.3853 184.72C18.2253 184.72 18.9053 184.453 19.4253 183.92C19.9453 183.373 20.2053 182.533 20.2053 181.4C20.2053 180.493 19.972 179.773 19.5053 179.24C19.052 178.707 18.3653 178.44 17.4453 178.44C16.8186 178.44 16.272 178.573 15.8053 178.84C15.3386 179.093 14.972 179.42 14.7053 179.82C14.452 180.22 14.3253 180.633 14.3253 181.06C14.3253 181.5 14.3853 181.933 14.5053 182.36C14.6386 182.787 14.832 183.18 15.0853 183.54C15.352 183.9 15.672 184.187 16.0453 184.4C16.432 184.613 16.8786 184.72 17.3853 184.72Z" fill="#B8B8B8"/>
    <path d="M10.4 112H0.96V110.54L4.7 106.76C5.42 106.04 6.02667 105.4 6.52 104.84C7.01333 104.28 7.38667 103.733 7.64 103.2C7.89333 102.653 8.02 102.06 8.02 101.42C8.02 100.633 7.78667 100.04 7.32 99.64C6.85333 99.2267 6.24667 99.02 5.5 99.02C4.80667 99.02 4.19333 99.14 3.66 99.38C3.14 99.62 2.60667 99.9533 2.06 100.38L1.12 99.2C1.49333 98.88 1.9 98.5933 2.34 98.34C2.79333 98.0867 3.28 97.8867 3.8 97.74C4.33333 97.5933 4.9 97.52 5.5 97.52C6.39333 97.52 7.16 97.6733 7.8 97.98C8.44 98.2867 8.93333 98.7267 9.28 99.3C9.64 99.86 9.82 100.533 9.82 101.32C9.82 101.88 9.73333 102.413 9.56 102.92C9.38667 103.413 9.14 103.9 8.82 104.38C8.5 104.86 8.11333 105.347 7.66 105.84C7.20667 106.333 6.70667 106.847 6.16 107.38L3.18 110.32V110.4H10.4V112ZM21.9053 104.84C21.9053 106 21.8186 107.033 21.6453 107.94C21.472 108.847 21.192 109.62 20.8053 110.26C20.432 110.887 19.9386 111.367 19.3253 111.7C18.7253 112.033 17.9986 112.2 17.1453 112.2C16.0786 112.2 15.192 111.907 14.4853 111.32C13.792 110.733 13.272 109.893 12.9253 108.8C12.592 107.693 12.4253 106.373 12.4253 104.84C12.4253 103.293 12.5786 101.973 12.8853 100.88C13.2053 99.7867 13.712 98.9533 14.4053 98.38C15.0986 97.7933 16.012 97.5 17.1453 97.5C18.212 97.5 19.0986 97.7933 19.8053 98.38C20.512 98.9533 21.0386 99.7867 21.3853 100.88C21.732 101.973 21.9053 103.293 21.9053 104.84ZM14.1853 104.84C14.1853 106.147 14.2786 107.233 14.4653 108.1C14.6653 108.967 14.9786 109.62 15.4053 110.06C15.8453 110.487 16.4253 110.7 17.1453 110.7C17.8653 110.7 18.4386 110.487 18.8653 110.06C19.3053 109.633 19.6253 108.987 19.8253 108.12C20.0253 107.24 20.1253 106.147 20.1253 104.84C20.1253 103.533 20.0253 102.453 19.8253 101.6C19.6253 100.733 19.3053 100.087 18.8653 99.66C18.4386 99.22 17.8653 99 17.1453 99C16.4253 99 15.8453 99.22 15.4053 99.66C14.9786 100.087 14.6653 100.733 14.4653 101.6C14.2786 102.453 14.1853 103.533 14.1853 104.84Z" fill="#B8B8B8"/>
    <path d="M10.4 41H0.96V39.54L4.7 35.76C5.42 35.04 6.02667 34.4 6.52 33.84C7.01333 33.28 7.38667 32.7333 7.64 32.2C7.89333 31.6533 8.02 31.06 8.02 30.42C8.02 29.6333 7.78667 29.04 7.32 28.64C6.85333 28.2267 6.24667 28.02 5.5 28.02C4.80667 28.02 4.19333 28.14 3.66 28.38C3.14 28.62 2.60667 28.9533 2.06 29.38L1.12 28.2C1.49333 27.88 1.9 27.5933 2.34 27.34C2.79333 27.0867 3.28 26.8867 3.8 26.74C4.33333 26.5933 4.9 26.52 5.5 26.52C6.39333 26.52 7.16 26.6733 7.8 26.98C8.44 27.2867 8.93333 27.7267 9.28 28.3C9.64 28.86 9.82 29.5333 9.82 30.32C9.82 30.88 9.73333 31.4133 9.56 31.92C9.38667 32.4133 9.14 32.9 8.82 33.38C8.5 33.86 8.11333 34.3467 7.66 34.84C7.20667 35.3333 6.70667 35.8467 6.16 36.38L3.18 39.32V39.4H10.4V41ZM22.4853 37.76H20.4053V41H18.7053V37.76H11.8653V36.26L18.5853 26.64H20.4053V36.18H22.4853V37.76ZM18.7053 31.68C18.7053 31.3333 18.7053 31.02 18.7053 30.74C18.7186 30.4467 18.732 30.1733 18.7453 29.92C18.7586 29.6667 18.7653 29.4267 18.7653 29.2C18.7786 28.96 18.792 28.7333 18.8053 28.52H18.7253C18.6186 28.7733 18.4853 29.0467 18.3253 29.34C18.1653 29.6333 18.012 29.88 17.8653 30.08L13.5853 36.18H18.7053V31.68Z" fill="#B8B8B8"/>
</svg>
