<svg width="20" height="20" viewBox="0 0 20 20" fill="none" xmlns="http://www.w3.org/2000/svg">
    <path d="M11.6487 10L19.9397 0.401841C20.0787 0.242331 19.9618 0 19.7471 0H17.2266C17.0782 0 16.936 0.0644171 16.8381 0.174847L10 8.09202L3.16189 0.174847C3.06714 0.0644171 2.92501 0 2.7734 0H0.252932C0.038155 0 -0.078709 0.242331 0.0602641 0.401841L8.35127 10L0.0602641 19.5982C0.0291329 19.6337 0.00916097 19.6772 0.00271883 19.7234C-0.00372332 19.7697 0.00363488 19.8168 0.0239206 19.8591C0.0442063 19.9014 0.0765674 19.9372 0.117161 19.9621C0.157755 19.9871 0.204876 20.0003 0.252932 20H2.7734C2.92185 20 3.06398 19.9356 3.16189 19.8251L10 11.908L16.8381 19.8251C16.9329 19.9356 17.075 20 17.2266 20H19.7471C19.9618 20 20.0787 19.7577 19.9397 19.5982L11.6487 10Z" fill="black"/>
</svg>
