<svg width="19" height="20" viewBox="0 0 19 20" fill="none" xmlns="http://www.w3.org/2000/svg">
    <path d="M6.73437 10C6.73437 10.5802 6.96483 11.1366 7.37507 11.5468C7.78531 11.957 8.3417 12.1875 8.92187 12.1875C9.50203 12.1875 10.0584 11.957 10.4687 11.5468C10.8789 11.1366 11.1094 10.5802 11.1094 10C11.1094 9.41984 10.8789 8.86344 10.4687 8.4532C10.0584 8.04297 9.50203 7.8125 8.92187 7.8125C8.3417 7.8125 7.78531 8.04297 7.37507 8.4532C6.96483 8.86344 6.73437 9.41984 6.73437 10V10ZM17.4023 9.49609C15.5508 5.5957 12.7519 3.63281 8.99999 3.63281C5.24608 3.63281 2.44921 5.5957 0.597647 9.49805C0.52338 9.65531 0.484863 9.82706 0.484863 10.001C0.484863 10.1749 0.52338 10.3466 0.597647 10.5039C2.44921 14.4043 5.24804 16.3672 8.99999 16.3672C12.7539 16.3672 15.5508 14.4043 17.4023 10.502C17.5527 10.1855 17.5527 9.81836 17.4023 9.49609V9.49609ZM8.92187 13.4375C7.02343 13.4375 5.48437 11.8984 5.48437 10C5.48437 8.10156 7.02343 6.5625 8.92187 6.5625C10.8203 6.5625 12.3594 8.10156 12.3594 10C12.3594 11.8984 10.8203 13.4375 8.92187 13.4375Z" fill="black"/>
</svg>
